<svg version="1.1" viewBox="0.0 0.0 960.0 720.0" fill="none" stroke="none" stroke-linecap="square" stroke-miterlimit="10" xmlns:xlink="http://www.w3.org/1999/xlink" xmlns="http://www.w3.org/2000/svg"><clipPath id="p.0"><path d="m0 0l960.0 0l0 720.0l-960.0 0l0 -720.0z" clip-rule="nonzero"/></clipPath><g clip-path="url(#p.0)"><path fill="#000000" fill-opacity="0.0" d="m0 0l960.0 0l0 720.0l-960.0 0z" fill-rule="evenodd"/><path fill="#6d9eeb" fill-opacity="0.7647" d="m352.0971 336.28085l0 0c0 -38.094604 30.881775 -68.97638 68.97638 -68.97638l0 0c18.29367 0 35.838074 7.2671204 48.77368 20.202698c12.935577 12.935577 20.202698 30.47998 20.202698 48.77368l0 0c0 38.094574 -30.881775 68.97638 -68.97638 68.97638l0 0c-38.094604 0 -68.97638 -30.881805 -68.97638 -68.97638z" fill-rule="evenodd"/><path stroke="#000000" stroke-width="1.0" stroke-linejoin="round" stroke-linecap="butt" d="m352.0971 336.28085l0 0c0 -38.094604 30.881775 -68.97638 68.97638 -68.97638l0 0c18.29367 0 35.838074 7.2671204 48.77368 20.202698c12.935577 12.935577 20.202698 30.47998 20.202698 48.77368l0 0c0 38.094574 -30.881775 68.97638 -68.97638 68.97638l0 0c-38.094604 0 -68.97638 -30.881805 -68.97638 -68.97638z" fill-rule="evenodd"/><path fill="#ea9999" fill-opacity="0.7262" d="m432.0971 336.28085l0 0c0 -38.094604 30.881775 -68.97638 68.97638 -68.97638l0 0c18.293701 0 35.838074 7.2671204 48.77368 20.202698c12.935547 12.935577 20.202698 30.47998 20.202698 48.77368l0 0c0 38.094574 -30.881775 68.97638 -68.97638 68.97638l0 0c-38.094604 0 -68.97638 -30.881805 -68.97638 -68.97638z" fill-rule="evenodd"/><path stroke="#000000" stroke-width="1.0" stroke-linejoin="round" stroke-linecap="butt" d="m432.0971 336.28085l0 0c0 -38.094604 30.881775 -68.97638 68.97638 -68.97638l0 0c18.293701 0 35.838074 7.2671204 48.77368 20.202698c12.935547 12.935577 20.202698 30.47998 20.202698 48.77368l0 0c0 38.094574 -30.881775 68.97638 -68.97638 68.97638l0 0c-38.094604 0 -68.97638 -30.881805 -68.97638 -68.97638z" fill-rule="evenodd"/></g></svg>